<svg width="20" height="19" viewBox="0 0 20 19" fill="none" xmlns="http://www.w3.org/2000/svg">
<path d="M19.0586 18.875H14.8919V11.8438C14.8919 10.741 13.6545 9.81854 12.5518 9.81854C11.4491 9.81854 10.7253 10.741 10.7253 11.8438V18.875H6.5586V6.375H10.7253V8.45833C11.4152 7.34226 13.1799 6.62216 14.3971 6.62216C16.9716 6.62216 19.0586 8.74854 19.0586 11.3229V18.875ZM4.47526 18.875H0.308594V6.375H4.47526V18.875ZM2.39194 0.125C3.54253 0.125 4.47527 1.05774 4.47527 2.20833C4.47527 3.35893 3.54253 4.29167 2.39194 4.29167C1.24134 4.29167 0.308604 3.35893 0.308604 2.20833C0.308604 1.05774 1.24134 0.125 2.39194 0.125Z" fill="white"/>
</svg>
