<svg width="22" height="21" viewBox="0 0 22 21" fill="none" xmlns="http://www.w3.org/2000/svg">
<path fill-rule="evenodd" clip-rule="evenodd" d="M10.7106 0.0834961C4.97209 0.0834961 0.321045 4.73454 0.321045 10.4731C0.321045 15.0627 3.29709 18.9575 7.42625 20.3325C7.94605 20.4262 8.13355 20.1064 8.13355 19.8314C8.13355 19.5845 8.12521 18.9304 8.12209 18.0647C5.23146 18.6918 4.62105 16.671 4.62105 16.671C4.15021 15.471 3.46792 15.1512 3.46792 15.1512C2.52521 14.5064 3.5398 14.521 3.5398 14.521C4.58355 14.5939 5.13042 15.5918 5.13042 15.5918C6.0575 17.1793 7.56375 16.721 8.15334 16.4554C8.24813 15.7835 8.51896 15.3252 8.8148 15.0658C6.50855 14.8043 4.08355 13.9127 4.08355 9.93037C4.08355 8.79808 4.48875 7.86891 5.15021 7.14391C5.045 6.88037 4.68563 5.82308 5.25334 4.39391C5.25334 4.39391 6.12521 4.1137 8.10959 5.45745C8.94084 5.22725 9.8273 5.11162 10.7096 5.10745C11.594 5.11162 12.4815 5.22725 13.3096 5.45745C15.295 4.11266 16.1658 4.39391 16.1658 4.39391C16.7335 5.82308 16.3773 6.88037 16.269 7.14391C16.9356 7.86891 17.3356 8.79704 17.3356 9.93037C17.3356 13.9231 14.9085 14.8002 12.594 15.0575C12.9638 15.3783 13.2971 16.0116 13.2971 16.9804C13.2971 18.37 13.2846 19.4908 13.2846 19.8314C13.2846 20.1095 13.47 20.4325 14.0002 20.3304C18.1273 18.9533 21.1002 15.0616 21.1002 10.4731C21.1002 4.73454 16.4492 0.0834961 10.7106 0.0834961Z" fill="white"/>
</svg>
