<svg width="23" height="18" viewBox="0 0 23 18" fill="none" xmlns="http://www.w3.org/2000/svg">
<path d="M22.5786 2.26273C21.7769 2.61831 20.9153 2.85861 20.0111 2.96666C20.9339 2.41339 21.6429 1.53732 21.9766 0.493358C21.1128 1.00571 20.1561 1.37773 19.1378 1.57817C18.3223 0.709337 17.1606 0.166504 15.8747 0.166504C13.4059 0.166504 11.4041 2.16803 11.4041 4.63687C11.4041 4.98723 11.4437 5.32844 11.5199 5.65567C7.80453 5.46921 4.51043 3.68945 2.30557 0.984744C1.92074 1.64499 1.70028 2.41292 1.70028 3.23222C1.70028 4.78321 2.48948 6.15153 3.68905 6.95327C2.9563 6.92994 2.2669 6.7289 1.66422 6.39407C1.66379 6.41274 1.66379 6.4314 1.66379 6.45025C1.66379 8.6163 3.20478 10.4231 5.24984 10.8338C4.87474 10.936 4.47979 10.9907 4.07208 10.9907C3.78402 10.9907 3.50397 10.9625 3.23096 10.9105C3.79987 12.6864 5.45082 13.979 7.40708 14.0149C5.8771 15.2141 3.94951 15.9288 1.85499 15.9288C1.49415 15.9288 1.1383 15.9075 0.788574 15.8662C2.76697 17.1346 5.11684 17.8748 7.64142 17.8748C15.8642 17.8748 20.3609 11.0629 20.3609 5.15523C20.3609 4.96144 20.3565 4.76864 20.3479 4.57687C21.2214 3.94657 21.9793 3.15923 22.5786 2.26273Z" fill="white"/>
</svg>
